<mxfile host="app.diagrams.net" modified="2021-07-04T10:17:11.800Z" agent="5.0 (Macintosh; Intel Mac OS X 10_15_7) AppleWebKit/537.36 (KHTML, like Gecko) Chrome/91.0.4472.114 Safari/537.36" etag="LDtVCpz6mg2Yc3XfFitk" version="14.8.3" type="github" pages="2">
  <diagram name="Page-1" id="13e1069c-82ec-6db2-03f1-153e76fe0fe0">
    <mxGraphModel dx="3229" dy="1163" grid="1" gridSize="10" guides="0" tooltips="1" connect="1" arrows="1" fold="1" page="1" pageScale="1" pageWidth="1100" pageHeight="850" background="none" math="0" shadow="0">
      <root>
        <mxCell id="0" />
        <mxCell id="1" parent="0" />
        <mxCell id="ldka-5FNK_S4JEufgtKj-68" value="" style="rounded=0;whiteSpace=wrap;html=1;fillColor=none;align=left;strokeColor=#FF0000;" vertex="1" parent="1">
          <mxGeometry x="-500" y="1330" width="680" height="330" as="geometry" />
        </mxCell>
        <mxCell id="ldka-5FNK_S4JEufgtKj-46" value="" style="rounded=0;whiteSpace=wrap;html=1;fillColor=none;align=left;strokeColor=#FF0000;" vertex="1" parent="1">
          <mxGeometry x="270" y="495" width="1920" height="815" as="geometry" />
        </mxCell>
        <mxCell id="ldka-5FNK_S4JEufgtKj-45" value="插件包审核成功的流程" style="shape=umlFrame;whiteSpace=wrap;html=1;fillColor=none;align=left;width=150;height=20;strokeColor=#0000FF;" vertex="1" parent="1">
          <mxGeometry x="290" y="860" width="1880" height="390" as="geometry" />
        </mxCell>
        <mxCell id="ldka-5FNK_S4JEufgtKj-20" value="静态检查成功" style="shape=umlFrame;whiteSpace=wrap;html=1;width=90;height=20;strokeColor=#3333FF;" vertex="1" parent="1">
          <mxGeometry x="290" y="610" width="840" height="220" as="geometry" />
        </mxCell>
        <mxCell id="7baba1c4bc27f4b0-2" value="插件server" style="shape=umlLifeline;perimeter=lifelinePerimeter;whiteSpace=wrap;html=1;container=1;collapsible=0;recursiveResize=0;outlineConnect=0;rounded=1;shadow=0;comic=0;labelBackgroundColor=none;strokeWidth=1;fontFamily=Verdana;fontSize=12;align=center;" parent="1" vertex="1">
          <mxGeometry x="-320" y="80" width="80" height="1570" as="geometry" />
        </mxCell>
        <mxCell id="7baba1c4bc27f4b0-3" value="SCF" style="shape=umlLifeline;perimeter=lifelinePerimeter;whiteSpace=wrap;html=1;container=1;collapsible=0;recursiveResize=0;outlineConnect=0;rounded=1;shadow=0;comic=0;labelBackgroundColor=none;strokeWidth=1;fontFamily=Verdana;fontSize=12;align=center;" parent="1" vertex="1">
          <mxGeometry x="640" y="80" width="120" height="1170" as="geometry" />
        </mxCell>
        <mxCell id="7baba1c4bc27f4b0-4" value="COS（CDN）" style="shape=umlLifeline;perimeter=lifelinePerimeter;whiteSpace=wrap;html=1;container=1;collapsible=0;recursiveResize=0;outlineConnect=0;rounded=1;shadow=0;comic=0;labelBackgroundColor=none;strokeWidth=1;fontFamily=Verdana;fontSize=12;align=center;" parent="1" vertex="1">
          <mxGeometry x="840" y="80" width="80" height="760" as="geometry" />
        </mxCell>
        <mxCell id="7baba1c4bc27f4b0-5" value="插件审核Server" style="shape=umlLifeline;perimeter=lifelinePerimeter;whiteSpace=wrap;html=1;container=1;collapsible=0;recursiveResize=0;outlineConnect=0;rounded=1;shadow=0;comic=0;labelBackgroundColor=none;strokeWidth=1;fontFamily=Verdana;fontSize=12;align=center;" parent="1" vertex="1">
          <mxGeometry x="280" y="80" width="80" height="1040" as="geometry" />
        </mxCell>
        <mxCell id="7baba1c4bc27f4b0-6" value="插件管理server" style="shape=umlLifeline;perimeter=lifelinePerimeter;whiteSpace=wrap;html=1;container=1;collapsible=0;recursiveResize=0;outlineConnect=0;rounded=1;shadow=0;comic=0;labelBackgroundColor=none;strokeWidth=1;fontFamily=Verdana;fontSize=12;align=center;" parent="1" vertex="1">
          <mxGeometry x="1040" y="80" width="80" height="1500" as="geometry" />
        </mxCell>
        <mxCell id="ldka-5FNK_S4JEufgtKj-40" value="17. 创建插件云函数(需要考虑插件版本信息)" style="html=1;verticalAlign=bottom;endArrow=block;strokeColor=#000000;strokeWidth=1;" edge="1" parent="7baba1c4bc27f4b0-6" target="7baba1c4bc27f4b0-3">
          <mxGeometry width="80" relative="1" as="geometry">
            <mxPoint x="30" y="1030" as="sourcePoint" />
            <mxPoint x="110" y="1030" as="targetPoint" />
          </mxGeometry>
        </mxCell>
        <mxCell id="ldka-5FNK_S4JEufgtKj-42" value="" style="html=1;points=[];perimeter=orthogonalPerimeter;strokeColor=#000000;fillColor=none;align=left;" vertex="1" parent="7baba1c4bc27f4b0-6">
          <mxGeometry x="35" y="1060" width="10" height="40" as="geometry" />
        </mxCell>
        <mxCell id="ldka-5FNK_S4JEufgtKj-43" value="18. 插件元信息变更、插件包上架" style="edgeStyle=orthogonalEdgeStyle;html=1;align=left;spacingLeft=2;endArrow=block;rounded=0;entryX=1;entryY=0;strokeColor=#000000;strokeWidth=1;" edge="1" target="ldka-5FNK_S4JEufgtKj-42" parent="7baba1c4bc27f4b0-6">
          <mxGeometry relative="1" as="geometry">
            <mxPoint x="40" y="1040" as="sourcePoint" />
            <Array as="points">
              <mxPoint x="70" y="1040" />
            </Array>
          </mxGeometry>
        </mxCell>
        <mxCell id="HN2Nw33tpEwXZnYEOGIW-1" value="CLI" style="shape=umlLifeline;perimeter=lifelinePerimeter;whiteSpace=wrap;html=1;container=1;collapsible=0;recursiveResize=0;outlineConnect=0;rounded=1;shadow=0;comic=0;labelBackgroundColor=none;strokeWidth=1;fontFamily=Verdana;fontSize=12;align=center;" vertex="1" parent="1">
          <mxGeometry x="1440" y="80" width="80" height="580" as="geometry" />
        </mxCell>
        <mxCell id="HN2Nw33tpEwXZnYEOGIW-15" value="" style="html=1;points=[];perimeter=orthogonalPerimeter;" vertex="1" parent="HN2Nw33tpEwXZnYEOGIW-1">
          <mxGeometry x="35" y="160" width="10" height="60" as="geometry" />
        </mxCell>
        <mxCell id="HN2Nw33tpEwXZnYEOGIW-16" value="2.1. 调试" style="html=1;verticalAlign=bottom;endArrow=block;entryX=1;entryY=0;" edge="1" target="HN2Nw33tpEwXZnYEOGIW-15" parent="HN2Nw33tpEwXZnYEOGIW-1">
          <mxGeometry relative="1" as="geometry">
            <mxPoint x="230" y="160" as="sourcePoint" />
          </mxGeometry>
        </mxCell>
        <mxCell id="HN2Nw33tpEwXZnYEOGIW-19" value="" style="html=1;points=[];perimeter=orthogonalPerimeter;" vertex="1" parent="HN2Nw33tpEwXZnYEOGIW-1">
          <mxGeometry x="35" y="250" width="10" height="60" as="geometry" />
        </mxCell>
        <mxCell id="HN2Nw33tpEwXZnYEOGIW-4" value="用户" style="shape=umlLifeline;participant=umlActor;perimeter=lifelinePerimeter;whiteSpace=wrap;html=1;container=1;collapsible=0;recursiveResize=0;verticalAlign=top;spacingTop=36;outlineConnect=0;" vertex="1" parent="1">
          <mxGeometry x="-470" y="80" width="30" height="1710" as="geometry" />
        </mxCell>
        <mxCell id="HN2Nw33tpEwXZnYEOGIW-5" value="开发者" style="shape=umlLifeline;participant=umlActor;perimeter=lifelinePerimeter;whiteSpace=wrap;html=1;container=1;collapsible=0;recursiveResize=0;verticalAlign=top;spacingTop=36;outlineConnect=0;" vertex="1" parent="1">
          <mxGeometry x="1650" y="80" width="40" height="1170" as="geometry" />
        </mxCell>
        <mxCell id="HN2Nw33tpEwXZnYEOGIW-7" value="" style="html=1;points=[];perimeter=orthogonalPerimeter;" vertex="1" parent="HN2Nw33tpEwXZnYEOGIW-5">
          <mxGeometry x="15" y="100" width="10" height="300" as="geometry" />
        </mxCell>
        <mxCell id="HN2Nw33tpEwXZnYEOGIW-8" value="1. 开发" style="edgeStyle=orthogonalEdgeStyle;html=1;align=left;spacingLeft=2;endArrow=block;rounded=0;entryX=1;entryY=0;" edge="1" target="HN2Nw33tpEwXZnYEOGIW-7" parent="HN2Nw33tpEwXZnYEOGIW-5">
          <mxGeometry relative="1" as="geometry">
            <mxPoint x="20" y="80" as="sourcePoint" />
            <Array as="points">
              <mxPoint x="45" y="80" />
            </Array>
          </mxGeometry>
        </mxCell>
        <mxCell id="HN2Nw33tpEwXZnYEOGIW-17" value="2.2. 调试成功" style="html=1;verticalAlign=bottom;endArrow=open;dashed=1;endSize=8;exitX=1;exitY=0.95;" edge="1" source="HN2Nw33tpEwXZnYEOGIW-15" parent="1" target="HN2Nw33tpEwXZnYEOGIW-5">
          <mxGeometry relative="1" as="geometry">
            <mxPoint x="1545" y="297" as="targetPoint" />
          </mxGeometry>
        </mxCell>
        <mxCell id="HN2Nw33tpEwXZnYEOGIW-20" value="3.1 打包" style="html=1;verticalAlign=bottom;endArrow=block;entryX=1;entryY=0;" edge="1" target="HN2Nw33tpEwXZnYEOGIW-19" parent="1" source="HN2Nw33tpEwXZnYEOGIW-5">
          <mxGeometry relative="1" as="geometry">
            <mxPoint x="1545" y="330" as="sourcePoint" />
          </mxGeometry>
        </mxCell>
        <mxCell id="HN2Nw33tpEwXZnYEOGIW-21" value="3.2 打包结果" style="html=1;verticalAlign=bottom;endArrow=open;dashed=1;endSize=8;exitX=1;exitY=0.95;" edge="1" source="HN2Nw33tpEwXZnYEOGIW-19" parent="1" target="HN2Nw33tpEwXZnYEOGIW-5">
          <mxGeometry relative="1" as="geometry">
            <mxPoint x="1545" y="387" as="targetPoint" />
          </mxGeometry>
        </mxCell>
        <mxCell id="HN2Nw33tpEwXZnYEOGIW-28" value="插件管理前端" style="shape=umlLifeline;perimeter=lifelinePerimeter;whiteSpace=wrap;html=1;container=1;collapsible=0;recursiveResize=0;outlineConnect=0;rounded=1;shadow=0;comic=0;labelBackgroundColor=none;strokeWidth=1;fontFamily=Verdana;fontSize=12;align=center;" vertex="1" parent="1">
          <mxGeometry x="1240" y="80" width="80" height="560" as="geometry" />
        </mxCell>
        <mxCell id="HN2Nw33tpEwXZnYEOGIW-35" value="" style="html=1;points=[];perimeter=orthogonalPerimeter;" vertex="1" parent="1">
          <mxGeometry x="1275" y="440" width="10" height="170" as="geometry" />
        </mxCell>
        <mxCell id="HN2Nw33tpEwXZnYEOGIW-37" value="本地拿到插件包(zip)" style="edgeStyle=orthogonalEdgeStyle;html=1;align=left;spacingLeft=2;endArrow=block;rounded=0;entryX=1;entryY=0;" edge="1" parent="1">
          <mxGeometry relative="1" as="geometry">
            <mxPoint x="1670" y="400" as="sourcePoint" />
            <Array as="points">
              <mxPoint x="1700" y="400" />
            </Array>
            <mxPoint x="1675" y="420" as="targetPoint" />
          </mxGeometry>
        </mxCell>
        <mxCell id="HN2Nw33tpEwXZnYEOGIW-38" value="4.1 上传插件包" style="html=1;verticalAlign=bottom;endArrow=block;" edge="1" parent="1">
          <mxGeometry width="80" relative="1" as="geometry">
            <mxPoint x="1660" y="440" as="sourcePoint" />
            <mxPoint x="1290" y="440" as="targetPoint" />
          </mxGeometry>
        </mxCell>
        <mxCell id="HN2Nw33tpEwXZnYEOGIW-39" value="" style="html=1;points=[];perimeter=orthogonalPerimeter;" vertex="1" parent="1">
          <mxGeometry x="1075" y="450" width="10" height="50" as="geometry" />
        </mxCell>
        <mxCell id="HN2Nw33tpEwXZnYEOGIW-40" value="4.1.1 预上传(获取cos url)" style="html=1;verticalAlign=bottom;startArrow=oval;endArrow=block;startSize=8;" edge="1" target="HN2Nw33tpEwXZnYEOGIW-39" parent="1">
          <mxGeometry relative="1" as="geometry">
            <mxPoint x="1270" y="450" as="sourcePoint" />
            <Array as="points">
              <mxPoint x="1150" y="450" />
            </Array>
          </mxGeometry>
        </mxCell>
        <mxCell id="HN2Nw33tpEwXZnYEOGIW-41" value="4.1.2 获取cos url" style="html=1;verticalAlign=bottom;endArrow=block;" edge="1" parent="1" target="7baba1c4bc27f4b0-4">
          <mxGeometry width="80" relative="1" as="geometry">
            <mxPoint x="1070" y="470" as="sourcePoint" />
            <mxPoint x="1100" y="460" as="targetPoint" />
            <Array as="points">
              <mxPoint x="1020" y="470" />
            </Array>
          </mxGeometry>
        </mxCell>
        <mxCell id="HN2Nw33tpEwXZnYEOGIW-42" value="4.1.3 返回上传地址" style="html=1;verticalAlign=bottom;endArrow=open;dashed=1;endFill=0;" edge="1" parent="1">
          <mxGeometry width="80" relative="1" as="geometry">
            <mxPoint x="1085" y="500" as="sourcePoint" />
            <mxPoint x="1270" y="500" as="targetPoint" />
          </mxGeometry>
        </mxCell>
        <mxCell id="HN2Nw33tpEwXZnYEOGIW-43" value="4.1.4 上传插件包" style="html=1;verticalAlign=bottom;endArrow=block;" edge="1" parent="1" target="7baba1c4bc27f4b0-4">
          <mxGeometry width="80" relative="1" as="geometry">
            <mxPoint x="1275" y="530" as="sourcePoint" />
            <mxPoint x="1355" y="530" as="targetPoint" />
          </mxGeometry>
        </mxCell>
        <mxCell id="ldka-5FNK_S4JEufgtKj-3" value="4.1.5.1上传完成" style="html=1;verticalAlign=bottom;endArrow=open;dashed=1;endSize=8;strokeColor=#000000;strokeWidth=1;" edge="1" parent="1" source="7baba1c4bc27f4b0-4">
          <mxGeometry relative="1" as="geometry">
            <mxPoint x="890" y="550" as="sourcePoint" />
            <mxPoint x="1270" y="555" as="targetPoint" />
          </mxGeometry>
        </mxCell>
        <mxCell id="ldka-5FNK_S4JEufgtKj-4" value="" style="html=1;points=[];perimeter=orthogonalPerimeter;" vertex="1" parent="1">
          <mxGeometry x="1075" y="570" width="10" height="240" as="geometry" />
        </mxCell>
        <mxCell id="ldka-5FNK_S4JEufgtKj-6" value="" style="html=1;points=[];perimeter=orthogonalPerimeter;" vertex="1" parent="1">
          <mxGeometry x="875" y="530" width="10" height="70" as="geometry" />
        </mxCell>
        <mxCell id="ldka-5FNK_S4JEufgtKj-7" value="4.1.6通知上传完成" style="html=1;verticalAlign=bottom;endArrow=block;strokeColor=#000000;strokeWidth=1;" edge="1" parent="1">
          <mxGeometry width="80" relative="1" as="geometry">
            <mxPoint x="1270" y="579.5" as="sourcePoint" />
            <mxPoint x="1090" y="579.5" as="targetPoint" />
          </mxGeometry>
        </mxCell>
        <mxCell id="ldka-5FNK_S4JEufgtKj-8" value="4.1.7上传完成" style="html=1;verticalAlign=bottom;endArrow=open;dashed=1;endSize=8;strokeColor=#000000;strokeWidth=1;" edge="1" parent="1" target="HN2Nw33tpEwXZnYEOGIW-5">
          <mxGeometry relative="1" as="geometry">
            <mxPoint x="1290" y="610" as="sourcePoint" />
            <mxPoint x="1195" y="610" as="targetPoint" />
          </mxGeometry>
        </mxCell>
        <mxCell id="ldka-5FNK_S4JEufgtKj-11" value="4.1.5.2触发解压逻辑" style="edgeStyle=orthogonalEdgeStyle;html=1;align=left;spacingLeft=2;endArrow=block;rounded=0;entryX=1;entryY=0;strokeColor=#000000;strokeWidth=1;" edge="1" parent="1">
          <mxGeometry relative="1" as="geometry">
            <mxPoint x="890" y="580" as="sourcePoint" />
            <Array as="points">
              <mxPoint x="905" y="580" />
            </Array>
            <mxPoint x="880" y="600" as="targetPoint" />
          </mxGeometry>
        </mxCell>
        <mxCell id="ldka-5FNK_S4JEufgtKj-12" value="5. 查询index.js(获取文件内容)" style="html=1;verticalAlign=bottom;endArrow=blockThin;endSize=8;strokeColor=#000000;strokeWidth=1;endFill=1;" edge="1" parent="1" target="7baba1c4bc27f4b0-4">
          <mxGeometry relative="1" as="geometry">
            <mxPoint x="1070" y="630" as="sourcePoint" />
            <mxPoint x="890" y="630" as="targetPoint" />
          </mxGeometry>
        </mxCell>
        <mxCell id="ldka-5FNK_S4JEufgtKj-13" value="6. 生成client.js" style="html=1;verticalAlign=bottom;endArrow=block;strokeColor=#000000;strokeWidth=1;entryX=1.167;entryY=-0.011;entryDx=0;entryDy=0;entryPerimeter=0;" edge="1" parent="1" target="ldka-5FNK_S4JEufgtKj-15">
          <mxGeometry width="80" relative="1" as="geometry">
            <mxPoint x="1060" y="660" as="sourcePoint" />
            <mxPoint x="690" y="660" as="targetPoint" />
          </mxGeometry>
        </mxCell>
        <mxCell id="ldka-5FNK_S4JEufgtKj-14" value="6.2 返回client.js内容" style="html=1;verticalAlign=bottom;endArrow=open;dashed=1;endSize=8;strokeColor=#000000;strokeWidth=1;exitX=0.5;exitY=1.044;exitDx=0;exitDy=0;exitPerimeter=0;" edge="1" parent="1" source="ldka-5FNK_S4JEufgtKj-15">
          <mxGeometry relative="1" as="geometry">
            <mxPoint x="690" y="690" as="sourcePoint" />
            <mxPoint x="1070" y="690" as="targetPoint" />
          </mxGeometry>
        </mxCell>
        <mxCell id="ldka-5FNK_S4JEufgtKj-15" value="" style="html=1;points=[];perimeter=orthogonalPerimeter;" vertex="1" parent="1">
          <mxGeometry x="695" y="660" width="10" height="30" as="geometry" />
        </mxCell>
        <mxCell id="ldka-5FNK_S4JEufgtKj-16" value="7. 保存client.js文件" style="html=1;verticalAlign=bottom;endArrow=block;strokeColor=#000000;strokeWidth=1;" edge="1" parent="1">
          <mxGeometry width="80" relative="1" as="geometry">
            <mxPoint x="1070" y="720" as="sourcePoint" />
            <mxPoint x="890" y="720" as="targetPoint" />
          </mxGeometry>
        </mxCell>
        <mxCell id="ldka-5FNK_S4JEufgtKj-17" value="8. 插件元信息保存DB" style="html=1;verticalAlign=bottom;endArrow=block;strokeColor=#000000;strokeWidth=1;" edge="1" parent="1" target="ldka-5FNK_S4JEufgtKj-18">
          <mxGeometry width="80" relative="1" as="geometry">
            <mxPoint x="1070" y="750" as="sourcePoint" />
            <mxPoint x="1140" y="750" as="targetPoint" />
          </mxGeometry>
        </mxCell>
        <mxCell id="ldka-5FNK_S4JEufgtKj-18" value="DB" style="shape=umlLifeline;perimeter=lifelinePerimeter;whiteSpace=wrap;html=1;container=1;collapsible=0;recursiveResize=0;outlineConnect=0;rounded=1;shadow=0;comic=0;labelBackgroundColor=none;strokeWidth=1;fontFamily=Verdana;fontSize=12;align=center;" vertex="1" parent="1">
          <mxGeometry x="440" y="80" width="120" height="860" as="geometry" />
        </mxCell>
        <mxCell id="ldka-5FNK_S4JEufgtKj-19" value="9. 通知审核系统审核" style="html=1;verticalAlign=bottom;endArrow=block;strokeColor=#000000;strokeWidth=1;" edge="1" parent="1">
          <mxGeometry width="80" relative="1" as="geometry">
            <mxPoint x="1075" y="790.0000000000002" as="sourcePoint" />
            <mxPoint x="330" y="790" as="targetPoint" />
          </mxGeometry>
        </mxCell>
        <mxCell id="ldka-5FNK_S4JEufgtKj-22" value="&lt;font color=&quot;#ff0000&quot;&gt;需要先做代码检查&lt;/font&gt;" style="text;html=1;fillColor=none;align=center;verticalAlign=middle;whiteSpace=wrap;rounded=0;strokeColor=#000000;" vertex="1" parent="1">
          <mxGeometry x="340" y="560" width="100" height="40" as="geometry" />
        </mxCell>
        <mxCell id="ldka-5FNK_S4JEufgtKj-23" value="&lt;font color=&quot;#ff0000&quot;&gt;COS解压逻辑，需要考虑解压之后的目录名，跟现在下发给前端的插件包目录名需要对应上&lt;/font&gt;" style="text;html=1;align=left;verticalAlign=middle;whiteSpace=wrap;rounded=0;strokeColor=#000000;" vertex="1" parent="1">
          <mxGeometry x="705" y="540" width="170" height="50" as="geometry" />
        </mxCell>
        <mxCell id="ldka-5FNK_S4JEufgtKj-24" value="" style="endArrow=none;dashed=1;html=1;dashPattern=1 3;strokeWidth=2;exitX=0.5;exitY=1;exitDx=0;exitDy=0;" edge="1" parent="1" source="ldka-5FNK_S4JEufgtKj-23">
          <mxGeometry width="50" height="50" relative="1" as="geometry">
            <mxPoint x="840" y="640" as="sourcePoint" />
            <mxPoint x="910" y="600" as="targetPoint" />
          </mxGeometry>
        </mxCell>
        <mxCell id="ldka-5FNK_S4JEufgtKj-25" value="审核人员" style="shape=umlLifeline;participant=umlActor;perimeter=lifelinePerimeter;whiteSpace=wrap;html=1;container=1;collapsible=0;recursiveResize=0;verticalAlign=top;spacingTop=36;outlineConnect=0;" vertex="1" parent="1">
          <mxGeometry x="2040" y="80" width="50" height="1090" as="geometry" />
        </mxCell>
        <mxCell id="ldka-5FNK_S4JEufgtKj-28" value="审核前端" style="shape=umlLifeline;perimeter=lifelinePerimeter;whiteSpace=wrap;html=1;container=1;collapsible=0;recursiveResize=0;outlineConnect=0;rounded=1;shadow=0;comic=0;labelBackgroundColor=none;strokeWidth=1;fontFamily=Verdana;fontSize=12;align=center;" vertex="1" parent="1">
          <mxGeometry x="1840" y="80" width="80" height="980" as="geometry" />
        </mxCell>
        <mxCell id="ldka-5FNK_S4JEufgtKj-29" value="" style="html=1;points=[];perimeter=orthogonalPerimeter;strokeColor=#000000;fillColor=none;align=left;" vertex="1" parent="1">
          <mxGeometry x="2060" y="870" width="10" height="210" as="geometry" />
        </mxCell>
        <mxCell id="ldka-5FNK_S4JEufgtKj-30" value="10. 插件审核" style="html=1;verticalAlign=bottom;endArrow=block;strokeColor=#000000;strokeWidth=1;" edge="1" parent="1" target="ldka-5FNK_S4JEufgtKj-28">
          <mxGeometry width="80" relative="1" as="geometry">
            <mxPoint x="2060" y="880" as="sourcePoint" />
            <mxPoint x="2140" y="880" as="targetPoint" />
          </mxGeometry>
        </mxCell>
        <mxCell id="ldka-5FNK_S4JEufgtKj-31" value="11.查询待审核的插件" style="html=1;verticalAlign=bottom;endArrow=block;strokeColor=#000000;strokeWidth=1;" edge="1" parent="1" target="7baba1c4bc27f4b0-5">
          <mxGeometry width="80" relative="1" as="geometry">
            <mxPoint x="1870" y="910" as="sourcePoint" />
            <mxPoint x="1950" y="910" as="targetPoint" />
          </mxGeometry>
        </mxCell>
        <mxCell id="ldka-5FNK_S4JEufgtKj-32" value="12. 展示插件信息" style="html=1;verticalAlign=bottom;endArrow=open;dashed=1;endSize=8;strokeColor=#000000;strokeWidth=1;" edge="1" parent="1">
          <mxGeometry relative="1" as="geometry">
            <mxPoint x="1880" y="940" as="sourcePoint" />
            <mxPoint x="2050" y="940" as="targetPoint" />
          </mxGeometry>
        </mxCell>
        <mxCell id="ldka-5FNK_S4JEufgtKj-34" value="13. 审核插件" style="edgeStyle=orthogonalEdgeStyle;html=1;align=left;spacingLeft=2;endArrow=block;rounded=0;entryX=1;entryY=0;strokeColor=#000000;strokeWidth=1;" edge="1" target="ldka-5FNK_S4JEufgtKj-41" parent="1">
          <mxGeometry relative="1" as="geometry">
            <mxPoint x="2070" y="965" as="sourcePoint" />
            <Array as="points">
              <mxPoint x="2100" y="965" />
            </Array>
            <mxPoint x="2075" y="985" as="targetPoint" />
          </mxGeometry>
        </mxCell>
        <mxCell id="ldka-5FNK_S4JEufgtKj-35" value="14. 审核通过" style="html=1;verticalAlign=bottom;endArrow=block;strokeColor=#000000;strokeWidth=1;" edge="1" parent="1" target="ldka-5FNK_S4JEufgtKj-28">
          <mxGeometry width="80" relative="1" as="geometry">
            <mxPoint x="2050" y="1010" as="sourcePoint" />
            <mxPoint x="2130" y="1010" as="targetPoint" />
          </mxGeometry>
        </mxCell>
        <mxCell id="ldka-5FNK_S4JEufgtKj-37" value="15. 审核通过" style="html=1;verticalAlign=bottom;endArrow=block;strokeColor=#000000;strokeWidth=1;" edge="1" parent="1" target="7baba1c4bc27f4b0-5">
          <mxGeometry width="80" relative="1" as="geometry">
            <mxPoint x="1880.5" y="1030" as="sourcePoint" />
            <mxPoint x="1710" y="1030" as="targetPoint" />
          </mxGeometry>
        </mxCell>
        <mxCell id="ldka-5FNK_S4JEufgtKj-38" value="" style="html=1;points=[];perimeter=orthogonalPerimeter;strokeColor=#000000;fillColor=none;align=left;" vertex="1" parent="1">
          <mxGeometry x="315" y="1030" width="10" height="40" as="geometry" />
        </mxCell>
        <mxCell id="ldka-5FNK_S4JEufgtKj-39" value="16. 通知插件通过审核" style="html=1;verticalAlign=bottom;endArrow=block;strokeColor=#000000;strokeWidth=1;" edge="1" parent="1" target="7baba1c4bc27f4b0-6">
          <mxGeometry width="80" relative="1" as="geometry">
            <mxPoint x="325" y="1070" as="sourcePoint" />
            <mxPoint x="405" y="1070" as="targetPoint" />
          </mxGeometry>
        </mxCell>
        <mxCell id="ldka-5FNK_S4JEufgtKj-41" value="" style="html=1;points=[];perimeter=orthogonalPerimeter;strokeColor=#000000;fillColor=none;align=left;" vertex="1" parent="1">
          <mxGeometry x="2070" y="965" width="10" height="40" as="geometry" />
        </mxCell>
        <mxCell id="ldka-5FNK_S4JEufgtKj-44" value="19. 通知开发者插件包审核结果" style="html=1;verticalAlign=bottom;endArrow=block;strokeColor=#000000;strokeWidth=1;" edge="1" parent="1" target="HN2Nw33tpEwXZnYEOGIW-5">
          <mxGeometry width="80" relative="1" as="geometry">
            <mxPoint x="1090" y="1210" as="sourcePoint" />
            <mxPoint x="1155" y="1210" as="targetPoint" />
          </mxGeometry>
        </mxCell>
        <mxCell id="ldka-5FNK_S4JEufgtKj-47" value="&lt;font color=&quot;#ff0000&quot;&gt;从前端通知后台插件包上传成功开始，后续所有的处理对于开发者上传插件包来说都是异步的，每一步都有可能失败，考虑采用&lt;/font&gt;&lt;span style=&quot;color: rgb(255 , 0 , 0)&quot;&gt;状态机来实现&lt;/span&gt;" style="text;html=1;fillColor=none;align=center;verticalAlign=middle;whiteSpace=wrap;rounded=0;strokeColor=#000000;" vertex="1" parent="1">
          <mxGeometry x="300" y="400" width="200" height="80" as="geometry" />
        </mxCell>
        <mxCell id="ldka-5FNK_S4JEufgtKj-48" value="插件商城" style="shape=umlLifeline;perimeter=lifelinePerimeter;whiteSpace=wrap;html=1;container=1;collapsible=0;recursiveResize=0;outlineConnect=0;rounded=1;shadow=0;comic=0;labelBackgroundColor=none;strokeWidth=1;fontFamily=Verdana;fontSize=12;align=center;" vertex="1" parent="1">
          <mxGeometry x="-120" y="80" width="80" height="1410" as="geometry" />
        </mxCell>
        <mxCell id="ldka-5FNK_S4JEufgtKj-49" value="20. 浏览插件" style="html=1;verticalAlign=bottom;endArrow=block;strokeColor=#000000;strokeWidth=1;" edge="1" parent="1" target="ldka-5FNK_S4JEufgtKj-48">
          <mxGeometry width="80" relative="1" as="geometry">
            <mxPoint x="-450" y="1370" as="sourcePoint" />
            <mxPoint x="-90" y="1370" as="targetPoint" />
          </mxGeometry>
        </mxCell>
        <mxCell id="ldka-5FNK_S4JEufgtKj-54" value="21. 查询插件列表" style="html=1;verticalAlign=bottom;endArrow=block;strokeColor=#000000;strokeWidth=1;" edge="1" parent="1">
          <mxGeometry width="80" relative="1" as="geometry">
            <mxPoint x="-70" y="1400" as="sourcePoint" />
            <mxPoint x="1070" y="1400" as="targetPoint" />
          </mxGeometry>
        </mxCell>
        <mxCell id="ldka-5FNK_S4JEufgtKj-56" value="22. 返回插件列表" style="html=1;verticalAlign=bottom;endArrow=open;dashed=1;endSize=8;strokeColor=#000000;strokeWidth=1;" edge="1" parent="1" target="ldka-5FNK_S4JEufgtKj-48">
          <mxGeometry relative="1" as="geometry">
            <mxPoint x="1080" y="1440" as="sourcePoint" />
            <mxPoint x="1000" y="1440" as="targetPoint" />
          </mxGeometry>
        </mxCell>
        <mxCell id="ldka-5FNK_S4JEufgtKj-57" value="23. 展示插件" style="html=1;verticalAlign=bottom;endArrow=open;dashed=1;endSize=8;strokeColor=#000000;strokeWidth=1;" edge="1" parent="1">
          <mxGeometry relative="1" as="geometry">
            <mxPoint x="-80" y="1470" as="sourcePoint" />
            <mxPoint x="-450" y="1470" as="targetPoint" />
          </mxGeometry>
        </mxCell>
        <mxCell id="ldka-5FNK_S4JEufgtKj-58" value="" style="html=1;points=[];perimeter=orthogonalPerimeter;fillColor=none;align=left;" vertex="1" parent="1">
          <mxGeometry x="-460" y="1370" width="10" height="210" as="geometry" />
        </mxCell>
        <mxCell id="ldka-5FNK_S4JEufgtKj-59" value="24. 安装插件(302到授权页)" style="edgeStyle=orthogonalEdgeStyle;html=1;align=left;spacingLeft=2;endArrow=block;rounded=0;strokeColor=#000000;strokeWidth=1;" edge="1" parent="1">
          <mxGeometry x="-0.1667" y="5" relative="1" as="geometry">
            <mxPoint x="-440" y="1500" as="sourcePoint" />
            <Array as="points">
              <mxPoint x="-425" y="1500" />
              <mxPoint x="-425" y="1520" />
            </Array>
            <mxPoint x="-450" y="1520" as="targetPoint" />
            <mxPoint as="offset" />
          </mxGeometry>
        </mxCell>
        <mxCell id="ldka-5FNK_S4JEufgtKj-60" value="授权服务" style="shape=umlLifeline;perimeter=lifelinePerimeter;whiteSpace=wrap;html=1;container=1;collapsible=0;recursiveResize=0;outlineConnect=0;rounded=1;shadow=0;comic=0;labelBackgroundColor=none;strokeWidth=1;fontFamily=Verdana;fontSize=12;align=center;" vertex="1" parent="1">
          <mxGeometry x="80" y="80" width="80" height="1630" as="geometry" />
        </mxCell>
        <mxCell id="ldka-5FNK_S4JEufgtKj-62" value="25. 用户授权" style="html=1;verticalAlign=bottom;endArrow=block;strokeColor=#000000;strokeWidth=1;" edge="1" parent="1" target="ldka-5FNK_S4JEufgtKj-60">
          <mxGeometry width="80" relative="1" as="geometry">
            <mxPoint x="-450" y="1550" as="sourcePoint" />
            <mxPoint x="-370" y="1550" as="targetPoint" />
          </mxGeometry>
        </mxCell>
        <mxCell id="ldka-5FNK_S4JEufgtKj-63" value="26. 安装插件(存疑)" style="html=1;verticalAlign=bottom;endArrow=block;strokeColor=#000000;strokeWidth=1;" edge="1" parent="1" target="7baba1c4bc27f4b0-2">
          <mxGeometry width="80" relative="1" as="geometry">
            <mxPoint x="120" y="1580" as="sourcePoint" />
            <mxPoint x="-270" y="1580" as="targetPoint" />
          </mxGeometry>
        </mxCell>
        <mxCell id="ldka-5FNK_S4JEufgtKj-64" value="27. 安装成功" style="html=1;verticalAlign=bottom;endArrow=open;dashed=1;endSize=8;strokeColor=#000000;strokeWidth=1;" edge="1" parent="1" target="ldka-5FNK_S4JEufgtKj-60">
          <mxGeometry relative="1" as="geometry">
            <mxPoint x="-280" y="1600" as="sourcePoint" />
            <mxPoint x="-350" y="1600" as="targetPoint" />
          </mxGeometry>
        </mxCell>
        <mxCell id="ldka-5FNK_S4JEufgtKj-65" value="28. 提示用户安装成功" style="html=1;verticalAlign=bottom;endArrow=open;dashed=1;endSize=8;strokeColor=#000000;strokeWidth=1;" edge="1" parent="1">
          <mxGeometry relative="1" as="geometry">
            <mxPoint x="120" y="1630" as="sourcePoint" />
            <mxPoint x="-450" y="1630" as="targetPoint" />
          </mxGeometry>
        </mxCell>
        <mxCell id="ldka-5FNK_S4JEufgtKj-69" value="&lt;font color=&quot;#ff0000&quot;&gt;用户安装之后即可使用插件，不过商城是P1的需求，P0没有安装过程，用户可以直接使用（要记录用户使用记录便于以后迁移）&lt;/font&gt;" style="text;html=1;fillColor=none;align=center;verticalAlign=middle;whiteSpace=wrap;rounded=0;strokeColor=#000000;" vertex="1" parent="1">
          <mxGeometry x="-500" y="1240" width="190" height="70" as="geometry" />
        </mxCell>
      </root>
    </mxGraphModel>
  </diagram>
  <diagram id="MReGTqcURHO1EXwGwA-r" name="Page-2">
    <mxGraphModel dx="1186" dy="661" grid="0" gridSize="10" guides="1" tooltips="1" connect="1" arrows="1" fold="0" page="0" pageScale="1" pageWidth="827" pageHeight="1169" math="0" shadow="0">
      <root>
        <mxCell id="xL4jIzd0NPuV34EByVlt-0" />
        <mxCell id="xL4jIzd0NPuV34EByVlt-1" parent="xL4jIzd0NPuV34EByVlt-0" />
        <mxCell id="xL4jIzd0NPuV34EByVlt-17" value="TSW" style="rounded=0;whiteSpace=wrap;html=1;" vertex="1" parent="xL4jIzd0NPuV34EByVlt-1">
          <mxGeometry x="150" y="240" width="570" height="30" as="geometry" />
        </mxCell>
        <mxCell id="xL4jIzd0NPuV34EByVlt-15" value="" style="rounded=1;whiteSpace=wrap;html=1;dashed=1;" vertex="1" parent="xL4jIzd0NPuV34EByVlt-1">
          <mxGeometry x="760" y="155" width="210" height="65" as="geometry" />
        </mxCell>
        <mxCell id="xL4jIzd0NPuV34EByVlt-7" value="" style="rounded=1;whiteSpace=wrap;html=1;dashed=1;" vertex="1" parent="xL4jIzd0NPuV34EByVlt-1">
          <mxGeometry x="150" y="155" width="570" height="65" as="geometry" />
        </mxCell>
        <mxCell id="xL4jIzd0NPuV34EByVlt-2" value="QQ" style="rounded=0;whiteSpace=wrap;html=1;" vertex="1" parent="xL4jIzd0NPuV34EByVlt-1">
          <mxGeometry x="160" y="170" width="80" height="30" as="geometry" />
        </mxCell>
        <mxCell id="xL4jIzd0NPuV34EByVlt-3" value="微信" style="rounded=0;whiteSpace=wrap;html=1;" vertex="1" parent="xL4jIzd0NPuV34EByVlt-1">
          <mxGeometry x="250" y="170" width="80" height="30" as="geometry" />
        </mxCell>
        <mxCell id="xL4jIzd0NPuV34EByVlt-4" value="Iddas" style="rounded=0;whiteSpace=wrap;html=1;" vertex="1" parent="xL4jIzd0NPuV34EByVlt-1">
          <mxGeometry x="400" y="172.5" width="80" height="30" as="geometry" />
        </mxCell>
        <mxCell id="xL4jIzd0NPuV34EByVlt-5" value="企业微信" style="rounded=0;whiteSpace=wrap;html=1;" vertex="1" parent="xL4jIzd0NPuV34EByVlt-1">
          <mxGeometry x="590" y="170" width="80" height="30" as="geometry" />
        </mxCell>
        <mxCell id="xL4jIzd0NPuV34EByVlt-6" value="企业微信结合板" style="rounded=0;whiteSpace=wrap;html=1;" vertex="1" parent="xL4jIzd0NPuV34EByVlt-1">
          <mxGeometry x="810" y="170" width="90" height="30" as="geometry" />
        </mxCell>
        <mxCell id="xL4jIzd0NPuV34EByVlt-8" value="" style="endArrow=none;dashed=1;html=1;" edge="1" parent="xL4jIzd0NPuV34EByVlt-1">
          <mxGeometry width="50" height="50" relative="1" as="geometry">
            <mxPoint x="350" y="850" as="sourcePoint" />
            <mxPoint x="350" y="140" as="targetPoint" />
          </mxGeometry>
        </mxCell>
        <mxCell id="xL4jIzd0NPuV34EByVlt-9" value="" style="endArrow=none;html=1;strokeWidth=5;strokeColor=#FF0080;" edge="1" parent="xL4jIzd0NPuV34EByVlt-1">
          <mxGeometry width="50" height="50" relative="1" as="geometry">
            <mxPoint x="540" y="850" as="sourcePoint" />
            <mxPoint x="540" y="140" as="targetPoint" />
          </mxGeometry>
        </mxCell>
        <mxCell id="xL4jIzd0NPuV34EByVlt-10" value="" style="endArrow=classic;html=1;" edge="1" parent="xL4jIzd0NPuV34EByVlt-1">
          <mxGeometry width="50" height="50" relative="1" as="geometry">
            <mxPoint x="410" y="80" as="sourcePoint" />
            <mxPoint x="410" y="120" as="targetPoint" />
          </mxGeometry>
        </mxCell>
        <mxCell id="xL4jIzd0NPuV34EByVlt-11" value="&lt;font style=&quot;font-size: 17px&quot;&gt;docs.qq.com&lt;/font&gt;" style="text;html=1;strokeColor=none;fillColor=none;align=center;verticalAlign=middle;whiteSpace=wrap;rounded=0;dashed=1;" vertex="1" parent="xL4jIzd0NPuV34EByVlt-1">
          <mxGeometry x="380" y="50" width="80" height="20" as="geometry" />
        </mxCell>
        <mxCell id="xL4jIzd0NPuV34EByVlt-12" value="&lt;span style=&quot;font-size: 17px&quot;&gt;doc.weixin.qq.com&lt;/span&gt;" style="text;html=1;strokeColor=none;fillColor=none;align=center;verticalAlign=middle;whiteSpace=wrap;rounded=0;dashed=1;" vertex="1" parent="xL4jIzd0NPuV34EByVlt-1">
          <mxGeometry x="815" y="50" width="80" height="20" as="geometry" />
        </mxCell>
        <mxCell id="xL4jIzd0NPuV34EByVlt-13" value="" style="endArrow=classic;html=1;" edge="1" parent="xL4jIzd0NPuV34EByVlt-1">
          <mxGeometry width="50" height="50" relative="1" as="geometry">
            <mxPoint x="850" y="80" as="sourcePoint" />
            <mxPoint x="850" y="130" as="targetPoint" />
          </mxGeometry>
        </mxCell>
        <mxCell id="xL4jIzd0NPuV34EByVlt-14" value="&lt;font style=&quot;font-size: 15px&quot; color=&quot;#cc0000&quot;&gt;&lt;b&gt;web/app/pc&lt;/b&gt;&lt;/font&gt;" style="text;html=1;strokeColor=none;fillColor=none;align=center;verticalAlign=middle;whiteSpace=wrap;rounded=0;dashed=1;" vertex="1" parent="xL4jIzd0NPuV34EByVlt-1">
          <mxGeometry x="190" y="130" width="40" height="20" as="geometry" />
        </mxCell>
        <mxCell id="xL4jIzd0NPuV34EByVlt-16" value="&lt;font color=&quot;#cc0000&quot;&gt;&lt;span style=&quot;font-size: 15px&quot;&gt;&lt;b&gt;企业微信Native&lt;/b&gt;&lt;/span&gt;&lt;/font&gt;" style="text;html=1;strokeColor=none;fillColor=none;align=center;verticalAlign=middle;whiteSpace=wrap;rounded=0;dashed=1;" vertex="1" parent="xL4jIzd0NPuV34EByVlt-1">
          <mxGeometry x="790" y="130" width="120" height="20" as="geometry" />
        </mxCell>
        <mxCell id="xL4jIzd0NPuV34EByVlt-19" value="BFF" style="rounded=0;whiteSpace=wrap;html=1;" vertex="1" parent="xL4jIzd0NPuV34EByVlt-1">
          <mxGeometry x="150" y="280" width="180" height="30" as="geometry" />
        </mxCell>
        <mxCell id="xL4jIzd0NPuV34EByVlt-20" value="BFF" style="rounded=0;whiteSpace=wrap;html=1;" vertex="1" parent="xL4jIzd0NPuV34EByVlt-1">
          <mxGeometry x="360" y="280" width="170" height="30" as="geometry" />
        </mxCell>
        <mxCell id="xL4jIzd0NPuV34EByVlt-21" value="BFF" style="rounded=0;whiteSpace=wrap;html=1;" vertex="1" parent="xL4jIzd0NPuV34EByVlt-1">
          <mxGeometry x="550" y="280" width="170" height="30" as="geometry" />
        </mxCell>
        <mxCell id="xL4jIzd0NPuV34EByVlt-22" value="Gateway" style="rounded=0;whiteSpace=wrap;html=1;" vertex="1" parent="xL4jIzd0NPuV34EByVlt-1">
          <mxGeometry x="150" y="350" width="180" height="30" as="geometry" />
        </mxCell>
        <mxCell id="xL4jIzd0NPuV34EByVlt-23" value="Gateway" style="rounded=0;whiteSpace=wrap;html=1;" vertex="1" parent="xL4jIzd0NPuV34EByVlt-1">
          <mxGeometry x="360" y="350" width="170" height="30" as="geometry" />
        </mxCell>
        <mxCell id="xL4jIzd0NPuV34EByVlt-24" value="Gateway" style="rounded=0;whiteSpace=wrap;html=1;" vertex="1" parent="xL4jIzd0NPuV34EByVlt-1">
          <mxGeometry x="550" y="350" width="427" height="30" as="geometry" />
        </mxCell>
        <mxCell id="xL4jIzd0NPuV34EByVlt-26" value="MicroService" style="rounded=0;whiteSpace=wrap;html=1;" vertex="1" parent="xL4jIzd0NPuV34EByVlt-1">
          <mxGeometry x="150" y="410" width="180" height="130" as="geometry" />
        </mxCell>
        <mxCell id="xL4jIzd0NPuV34EByVlt-27" value="MicroService" style="rounded=0;whiteSpace=wrap;html=1;" vertex="1" parent="xL4jIzd0NPuV34EByVlt-1">
          <mxGeometry x="360" y="410" width="170" height="130" as="geometry" />
        </mxCell>
        <mxCell id="xL4jIzd0NPuV34EByVlt-28" value="MicroService" style="rounded=0;whiteSpace=wrap;html=1;" vertex="1" parent="xL4jIzd0NPuV34EByVlt-1">
          <mxGeometry x="550" y="410" width="427" height="130" as="geometry" />
        </mxCell>
        <mxCell id="xL4jIzd0NPuV34EByVlt-30" value="腾讯云" style="ellipse;shape=cloud;whiteSpace=wrap;html=1;" vertex="1" parent="xL4jIzd0NPuV34EByVlt-1">
          <mxGeometry x="170" y="635" width="120" height="80" as="geometry" />
        </mxCell>
        <mxCell id="xL4jIzd0NPuV34EByVlt-31" value="腾讯云" style="ellipse;shape=cloud;whiteSpace=wrap;html=1;" vertex="1" parent="xL4jIzd0NPuV34EByVlt-1">
          <mxGeometry x="375" y="635" width="120" height="80" as="geometry" />
        </mxCell>
        <mxCell id="xL4jIzd0NPuV34EByVlt-32" value="微信云" style="ellipse;shape=cloud;whiteSpace=wrap;html=1;" vertex="1" parent="xL4jIzd0NPuV34EByVlt-1">
          <mxGeometry x="575" y="630" width="335" height="80" as="geometry" />
        </mxCell>
        <mxCell id="xL4jIzd0NPuV34EByVlt-35" value="" style="curved=1;endArrow=classic;html=1;fillColor=#f8cecc;strokeColor=#FF0080;" edge="1" parent="xL4jIzd0NPuV34EByVlt-1">
          <mxGeometry width="50" height="50" relative="1" as="geometry">
            <mxPoint x="600" y="150" as="sourcePoint" />
            <mxPoint x="650" y="150" as="targetPoint" />
            <Array as="points">
              <mxPoint x="620" y="280" />
              <mxPoint x="640" y="230" />
            </Array>
          </mxGeometry>
        </mxCell>
        <mxCell id="xL4jIzd0NPuV34EByVlt-36" value="" style="endArrow=classic;html=1;strokeColor=#FF0080;" edge="1" parent="xL4jIzd0NPuV34EByVlt-1">
          <mxGeometry width="50" height="50" relative="1" as="geometry">
            <mxPoint x="560" y="790" as="sourcePoint" />
            <mxPoint x="940" y="790" as="targetPoint" />
          </mxGeometry>
        </mxCell>
        <mxCell id="xL4jIzd0NPuV34EByVlt-37" value="&lt;font style=&quot;font-size: 19px&quot; color=&quot;#ff0080&quot;&gt;微文档团队&lt;/font&gt;" style="edgeLabel;html=1;align=center;verticalAlign=middle;resizable=0;points=[];" vertex="1" connectable="0" parent="xL4jIzd0NPuV34EByVlt-36">
          <mxGeometry x="-0.3526" relative="1" as="geometry">
            <mxPoint x="60" as="offset" />
          </mxGeometry>
        </mxCell>
        <mxCell id="xL4jIzd0NPuV34EByVlt-39" value="" style="endArrow=classic;html=1;strokeColor=#FF0080;" edge="1" parent="xL4jIzd0NPuV34EByVlt-1">
          <mxGeometry width="50" height="50" relative="1" as="geometry">
            <mxPoint x="530" y="790" as="sourcePoint" />
            <mxPoint x="110" y="790" as="targetPoint" />
          </mxGeometry>
        </mxCell>
        <mxCell id="xL4jIzd0NPuV34EByVlt-40" value="&lt;font color=&quot;#ff0080&quot;&gt;&lt;span style=&quot;font-size: 19px&quot;&gt;腾讯文档团队&lt;/span&gt;&lt;/font&gt;" style="edgeLabel;html=1;align=center;verticalAlign=middle;resizable=0;points=[];" vertex="1" connectable="0" parent="xL4jIzd0NPuV34EByVlt-39">
          <mxGeometry x="-0.3526" relative="1" as="geometry">
            <mxPoint x="-54" as="offset" />
          </mxGeometry>
        </mxCell>
      </root>
    </mxGraphModel>
  </diagram>
</mxfile>
